<svg width="30" height="30" viewBox="0 0 30 30" fill="none" xmlns="http://www.w3.org/2000/svg">
<path d="M26.988 9.96252C26.3355 8.4087 25.3864 6.99638 24.1935 5.80426C23.0041 4.61009 21.5912 3.66065 20.0351 3.00985C18.4411 2.33991 16.7283 1.9965 14.9986 2.00003H14.9405C13.1812 2.00873 11.4801 2.35695 9.8778 3.04177C8.33507 3.69925 6.93549 4.65038 5.75728 5.84199C4.57589 7.03141 3.63762 8.4388 2.99476 9.98573C2.32745 11.5944 1.98931 13.32 2.00026 15.061C2.00898 17.0748 2.4917 19.0741 3.39315 20.8616V25.2723C3.39315 26.0094 3.99218 26.6071 4.72788 26.6071H9.1421C10.9417 27.5133 12.9276 27.9902 14.9434 28H15.0045C16.7434 28 18.4271 27.6634 20.0148 27.0047C21.563 26.3617 22.9706 25.4233 24.1586 24.2422C25.3566 23.0554 26.2988 21.6683 26.9589 20.1217C27.6423 18.5199 27.9912 16.8165 27.9999 15.058C28.0057 13.2909 27.6626 11.5759 26.988 9.96252ZM9.19444 16.3929C8.42675 16.3929 7.80155 15.769 7.80155 15C7.80155 14.231 8.42675 13.6072 9.19444 13.6072C9.96213 13.6072 10.5873 14.231 10.5873 15C10.5873 15.769 9.96504 16.3929 9.19444 16.3929ZM14.9986 16.3929C14.2309 16.3929 13.6057 15.769 13.6057 15C13.6057 14.231 14.2309 13.6072 14.9986 13.6072C15.7663 13.6072 16.3915 14.231 16.3915 15C16.3915 15.769 15.7663 16.3929 14.9986 16.3929ZM20.8028 16.3929C20.0351 16.3929 19.4099 15.769 19.4099 15C19.4099 14.231 20.0351 13.6072 20.8028 13.6072C21.5705 13.6072 22.1957 14.231 22.1957 15C22.1957 15.769 21.5705 16.3929 20.8028 16.3929Z" fill="#35C1FF"/>
</svg>
