<svg width="85" height="16" viewBox="0 0 85 16" fill="none" xmlns="http://www.w3.org/2000/svg">
<g clip-path="url(#clip0_2927_21997)">
<path d="M8.75 11.8434L4.11515 14.4762L5.15016 9.18933L1.25 5.5296L6.52491 4.89475L8.75 0L10.9751 4.89475L16.25 5.5296L12.3498 9.18933L13.3848 14.4762L8.75 11.8434Z" fill="#FF9110"/>
</g>
<g clip-path="url(#clip1_2927_21997)">
<path d="M26 11.8434L21.3652 14.4762L22.4002 9.18933L18.5 5.5296L23.7749 4.89475L26 0L28.2251 4.89475L33.5 5.5296L29.5998 9.18933L30.6348 14.4762L26 11.8434Z" fill="#FF9110"/>
</g>
<g clip-path="url(#clip2_2927_21997)">
<path d="M43.25 11.8434L38.6152 14.4762L39.6502 9.18933L35.75 5.5296L41.0249 4.89475L43.25 0L45.4751 4.89475L50.75 5.5296L46.8498 9.18933L47.8848 14.4762L43.25 11.8434Z" fill="#FF9110"/>
</g>
<g clip-path="url(#clip3_2927_21997)">
<path d="M59.75 10.315L62.5409 11.9001L61.9173 8.71719L64.2652 6.51322L61.0893 6.13111L59.75 3.18426V10.315ZM59.75 11.8434L55.1152 14.4762L56.1502 9.18933L52.25 5.5296L57.5249 4.89475L59.75 0L61.9751 4.89475L67.25 5.5296L63.3498 9.18933L64.3848 14.4762L59.75 11.8434Z" fill="#FF9110"/>
</g>
<g clip-path="url(#clip4_2927_21997)">
<path d="M77 11.8434L72.3652 14.4762L73.4002 9.18933L69.5 5.5296L74.7749 4.89475L77 0L79.2251 4.89475L84.5 5.5296L80.5998 9.18933L81.6348 14.4762L77 11.8434ZM77 10.315L79.7909 11.9001L79.1673 8.71719L81.5152 6.51322L78.3393 6.13111L77 3.18426L75.6607 6.13177L72.4848 6.51322L74.8327 8.71719L74.2091 11.9001L77 10.315Z" fill="#FF9110"/>
</g>
<defs>
<clipPath id="clip0_2927_21997">
<rect width="15.75" height="16" fill="white" transform="translate(0.5)"/>
</clipPath>
<clipPath id="clip1_2927_21997">
<rect width="15.75" height="16" fill="white" transform="translate(17.75)"/>
</clipPath>
<clipPath id="clip2_2927_21997">
<rect width="15.75" height="16" fill="white" transform="translate(35)"/>
</clipPath>
<clipPath id="clip3_2927_21997">
<rect width="15.75" height="16" fill="white" transform="translate(51.5)"/>
</clipPath>
<clipPath id="clip4_2927_21997">
<rect width="15.75" height="16" fill="white" transform="translate(68.75)"/>
</clipPath>
</defs>
</svg>
