<svg width="22" height="20" viewBox="0 0 22 20" fill="none" xmlns="http://www.w3.org/2000/svg">
<path d="M1 13H14C14.9319 13 15.3978 13 15.7654 13.1522C16.2554 13.3552 16.6448 13.7446 16.8478 14.2346C17 14.6022 17 15.0681 17 16C17 16.9319 17 17.3978 16.8478 17.7654C16.6448 18.2554 16.2554 18.6448 15.7654 18.8478C15.3978 19 14.9319 19 14 19H1" stroke="#141B34" stroke-width="1.5" stroke-linecap="round" stroke-linejoin="round"/>
<path d="M1 1H14C14.9319 1 15.3978 1 15.7654 1.15224C16.2554 1.35523 16.6448 1.74458 16.8478 2.23463C17 2.60218 17 3.06812 17 4C17 4.93188 17 5.39782 16.8478 5.76537C16.6448 6.25542 16.2554 6.64477 15.7654 6.84776C15.3978 7 14.9319 7 14 7H1" stroke="#141B34" stroke-width="1.5" stroke-linecap="round" stroke-linejoin="round"/>
<path d="M21 7H8C7.06812 7 6.60218 7 6.23463 7.15224C5.74458 7.35523 5.35523 7.74458 5.15224 8.23463C5 8.60218 5 9.06812 5 10C5 10.9319 5 11.3978 5.15224 11.7654C5.35523 12.2554 5.74458 12.6448 6.23463 12.8478C6.60218 13 7.06812 13 8 13H21" stroke="#141B34" stroke-width="1.5" stroke-linecap="round" stroke-linejoin="round"/>
<path d="M20 13C18.8954 13 18 11.6569 18 10C18 8.34315 18.8954 7 20 7" stroke="#141B34" stroke-width="1.5" stroke-linecap="round"/>
<path d="M2 1C3.10457 1 4 2.34315 4 4C4 5.65685 3.10457 7 2 7" stroke="#141B34" stroke-width="1.5" stroke-linecap="round"/>
<path d="M2 13C3.10457 13 4 14.3431 4 16C4 17.6569 3.10457 19 2 19" stroke="#141B34" stroke-width="1.5" stroke-linecap="round"/>
</svg>
