<svg width="50" height="10" viewBox="0 0 50 10" fill="none" xmlns="http://www.w3.org/2000/svg">
<g clip-path="url(#clip0_2924_23933)">
<path d="M4.7619 7.40214L1.81915 9.04762L2.47629 5.74333L0 3.456L3.34915 3.05922L4.7619 0L6.17466 3.05922L9.52381 3.456L7.04752 5.74333L7.70466 9.04762L4.7619 7.40214Z" fill="#FF9110"/>
</g>
<g clip-path="url(#clip1_2924_23933)">
<path d="M14.7554 7.4L11.8167 9.045L12.4729 5.74167L10 3.455L13.3446 3.05833L14.7554 0L16.1663 3.05833L19.5108 3.455L17.0379 5.74167L17.6942 9.045L14.7554 7.4ZM14.7554 6.445L16.525 7.43542L16.1296 5.44667L17.6183 4.06958L15.6046 3.83083L14.7554 1.98958L13.9063 3.83125L11.8925 4.06958L13.3813 5.44667L12.9858 7.43542L14.7554 6.445Z" fill="#FF9110"/>
</g>
<g clip-path="url(#clip2_2924_23933)">
<path d="M24.7554 7.4L21.8167 9.045L22.4729 5.74167L20 3.455L23.3446 3.05833L24.7554 0L26.1663 3.05833L29.5108 3.455L27.0379 5.74167L27.6942 9.045L24.7554 7.4ZM24.7554 6.445L26.525 7.43542L26.1296 5.44667L27.6183 4.06958L25.6046 3.83083L24.7554 1.98958L23.9063 3.83125L21.8925 4.06958L23.3813 5.44667L22.9858 7.43542L24.7554 6.445Z" fill="#FF9110"/>
</g>
<g clip-path="url(#clip3_2924_23933)">
<path d="M34.7554 7.4L31.8167 9.045L32.4729 5.74167L30 3.455L33.3446 3.05833L34.7554 0L36.1663 3.05833L39.5108 3.455L37.0379 5.74167L37.6942 9.045L34.7554 7.4ZM34.7554 6.445L36.525 7.43542L36.1296 5.44667L37.6183 4.06958L35.6046 3.83083L34.7554 1.98958L33.9063 3.83125L31.8925 4.06958L33.3813 5.44667L32.9858 7.43542L34.7554 6.445Z" fill="#FF9110"/>
</g>
<g clip-path="url(#clip4_2924_23933)">
<path d="M44.7554 7.4L41.8167 9.045L42.4729 5.74167L40 3.455L43.3446 3.05833L44.7554 0L46.1663 3.05833L49.5108 3.455L47.0379 5.74167L47.6942 9.045L44.7554 7.4ZM44.7554 6.445L46.525 7.43542L46.1296 5.44667L47.6183 4.06958L45.6046 3.83083L44.7554 1.98958L43.9063 3.83125L41.8925 4.06958L43.3813 5.44667L42.9858 7.43542L44.7554 6.445Z" fill="#FF9110"/>
</g>
<defs>
<clipPath id="clip0_2924_23933">
<rect width="10" height="10" fill="white"/>
</clipPath>
<clipPath id="clip1_2924_23933">
<rect width="10" height="10" fill="white" transform="translate(10)"/>
</clipPath>
<clipPath id="clip2_2924_23933">
<rect width="10" height="10" fill="white" transform="translate(20)"/>
</clipPath>
<clipPath id="clip3_2924_23933">
<rect width="10" height="10" fill="white" transform="translate(30)"/>
</clipPath>
<clipPath id="clip4_2924_23933">
<rect width="10" height="10" fill="white" transform="translate(40)"/>
</clipPath>
</defs>
</svg>
