<svg width="20" height="20" viewBox="0 0 20 20" fill="none" xmlns="http://www.w3.org/2000/svg">
<path d="M13.5887 13.0805C12.8813 12.7973 12.5988 12.0192 12.5988 12.0192C12.5988 12.0192 12.28 12.1955 12.28 11.7005C12.28 11.2055 12.5988 12.0192 12.9175 10.108C12.9175 10.108 13.8006 9.85984 13.6237 7.80797H13.4113C13.4113 7.80797 13.9425 5.61422 13.4113 4.87047C12.88 4.12797 12.6688 3.63297 11.5006 3.27859C10.3325 2.92422 10.7581 2.99484 9.90875 3.03109C9.05937 3.06734 8.35125 3.52672 8.35125 3.77484C8.35125 3.77484 7.82 3.80984 7.60875 4.02234C7.39625 4.23484 7.0425 5.22484 7.0425 5.47234C7.0425 5.71984 7.21938 7.38484 7.39625 7.73797L7.18562 7.80922C7.00812 9.86109 7.89187 10.1092 7.89187 10.1092C8.21062 12.0205 8.52938 11.2067 8.52938 11.7017C8.52938 12.1967 8.21062 12.0205 8.21062 12.0205C8.21062 12.0205 7.92812 12.7986 7.22062 13.0817C6.51312 13.3648 2.58563 14.8855 2.26625 15.2042C1.94625 15.523 1.9825 17.0092 1.9825 17.0092H18.8244C18.8244 17.0092 18.8619 15.5236 18.5419 15.2042C18.2231 14.8855 14.295 13.3642 13.5875 13.0817L13.5887 13.0805ZM5.795 12.973C5.7325 12.8605 5.7025 12.7792 5.7025 12.7792C5.7025 12.7792 5.4325 12.9292 5.4325 12.5092C5.4325 12.0892 5.7025 12.7792 5.9725 11.1592C5.9725 11.1592 6.7225 10.9498 6.5725 9.21047H6.39125C6.39125 9.21047 6.48125 8.84172 6.54 8.37672C6.53736 8.16896 6.54507 7.96121 6.56313 7.75422L6.58687 7.48797C6.57438 7.18047 6.52 6.90047 6.39187 6.72172C5.94187 6.09234 5.76187 5.67172 4.77312 5.37172C3.78312 5.07172 4.14188 5.13172 3.42313 5.16234C2.70313 5.19359 2.10313 5.58234 2.10313 5.79359C2.10313 5.79359 1.65312 5.82297 1.47312 6.00297C1.30437 6.17172 1.0325 6.91672 1 7.18109V7.35609C1.03 7.76484 1.1625 8.88734 1.29375 9.15172L1.115 9.21172C0.965 10.9505 1.715 11.1605 1.715 11.1605C1.98375 12.7792 2.25437 12.0905 2.25437 12.5105C2.25437 12.9305 1.98438 12.7792 1.98438 12.7792C1.98438 12.7792 1.745 13.4405 1.145 13.6792L1 13.7367V17.008H1.35937C1.34062 16.2092 1.4075 15.1786 1.82563 14.7617C2.04875 14.5398 2.77812 14.1742 5.79625 12.973H5.795ZM19.7513 7.31297C19.7262 7.07672 19.6719 6.86609 19.5688 6.72172C19.12 6.09172 18.9394 5.67172 17.95 5.37172C16.9606 5.07172 17.3206 5.13172 16.6 5.16234C15.8813 5.19359 15.2812 5.58234 15.2812 5.79359C15.2812 5.79359 14.8313 5.82297 14.6513 6.00297C14.4825 6.17297 14.2075 6.92297 14.1775 7.18422H14.1981L14.2481 7.75547C14.2606 7.89922 14.2619 8.02734 14.265 8.15797C14.3213 8.57422 14.3963 9.00172 14.4713 9.15172L14.2925 9.21109C14.1425 10.9498 14.8925 11.1598 14.8925 11.1598C15.1625 12.7786 15.4319 12.0898 15.4319 12.5098C15.4319 12.9298 15.1631 12.7786 15.1631 12.7786C15.1631 12.7786 15.1294 12.868 15.0606 12.9911C18.0419 14.1786 18.765 14.5411 18.9856 14.7617C19.4044 15.1792 19.4694 16.2092 19.4513 17.0086H19.7513V13.693L19.72 13.6792C19.12 13.4398 18.88 12.7792 18.88 12.7792C18.88 12.7792 18.6094 12.9292 18.6094 12.5105C18.6094 12.0917 18.88 12.7792 19.1494 11.1605C19.1494 11.1605 19.6519 11.0167 19.7513 10.0105V9.24297C19.7513 9.23214 19.7506 9.22172 19.7494 9.21172H19.5681C19.5681 9.21172 19.7031 8.65547 19.7513 8.04797V7.31297Z" fill="#141B34"/>
</svg>
