<svg width="4" height="15" viewBox="0 0 4 15" fill="none" xmlns="http://www.w3.org/2000/svg">
<path d="M2 2.56C2.26522 2.56 2.51957 2.47782 2.70711 2.33154C2.89464 2.18526 3 1.98687 3 1.78C3 1.57313 2.89464 1.37474 2.70711 1.22846C2.51957 1.08218 2.26522 1 2 1C1.73478 1 1.48043 1.08218 1.29289 1.22846C1.10536 1.37474 1 1.57313 1 1.78C1 1.98687 1.10536 2.18526 1.29289 2.33154C1.48043 2.47782 1.73478 2.56 2 2.56ZM2 8.28C2.26522 8.28 2.51957 8.19782 2.70711 8.05154C2.89464 7.90526 3 7.70687 3 7.5C3 7.29313 2.89464 7.09474 2.70711 6.94846C2.51957 6.80218 2.26522 6.72 2 6.72C1.73478 6.72 1.48043 6.80218 1.29289 6.94846C1.10536 7.09474 1 7.29313 1 7.5C1 7.70687 1.10536 7.90526 1.29289 8.05154C1.48043 8.19782 1.73478 8.28 2 8.28ZM2 14C2.26522 14 2.51957 13.9178 2.70711 13.7715C2.89464 13.6253 3 13.4269 3 13.22C3 13.0131 2.89464 12.8147 2.70711 12.6685C2.51957 12.5222 2.26522 12.44 2 12.44C1.73478 12.44 1.48043 12.5222 1.29289 12.6685C1.10536 12.8147 1 13.0131 1 13.22C1 13.4269 1.10536 13.6253 1.29289 13.7715C1.48043 13.9178 1.73478 14 2 14Z" stroke="#54575B" stroke-linecap="round" stroke-linejoin="round"/>
</svg>
